<svg xmlns="http://www.w3.org/2000/svg" width="18" height="17" fill="none" viewBox="0 0 18 17"><path fill="#000" fill-opacity=".9" fill-rule="evenodd" d="M1.4 11.016a1.8 1.8 0 0 0 1.8 1.8h.597v2.92l4.383-2.92h4.62a1.8 1.8 0 0 0 1.8-1.8v-7.2a1.8 1.8 0 0 0-1.8-1.8H3.2a1.8 1.8 0 0 0-1.8 1.8zm11.399.6H7.817l-2.82 1.879v-1.88H3.2a.6.6 0 0 1-.6-.6V3.818a.6.6 0 0 1 .6-.6h9.598a.6.6 0 0 1 .6.6v7.199a.6.6 0 0 1-.6.6" clip-rule="evenodd"/><rect width="8" height="8" x="10" y="8.616" fill="#00A650" rx="4"/><path fill="#fff" d="m13.31 13.333 2.605-2.604.585.585-3.19 3.19-1.81-1.81.585-.586z"/></svg>