<svg xmlns="http://www.w3.org/2000/svg" width="18" height="17" fill="none" viewBox="0 0 18 17"><path fill="#000" fill-opacity=".9" d="M9.8 2.017H6.204v-1.2H9.8zM5.332 11.82l-.537-1.072 2.604-1.303.003-3.829 1.2.001-.003 4.57z"/><path fill="#000" fill-opacity=".9" fill-rule="evenodd" d="M14.599 9.816a6.58 6.58 0 0 0-2.023-4.755l1.071-1.338-.936-.75L11.64 4.31a6.6 6.6 0 1 0 2.96 5.506m-12 0a5.4 5.4 0 1 1 10.8 0 5.4 5.4 0 0 1-10.8 0" clip-rule="evenodd"/><rect width="8" height="8" x="10" y="8.616" fill="#00A650" rx="4"/><path fill="#fff" d="m13.31 13.333 2.605-2.604.585.585-3.19 3.19-1.81-1.81.585-.586z"/></svg>